<?xml version="1.0" encoding="UTF-8" standalone="no"?>
<svg
   width="16"
   height="16"
   viewBox="0 0 16 16"
   version="1.1"
   id="svg1"
   sodipodi:docname="eca.svg"
   inkscape:version="1.4.2 (ebf0e940d0, 2025-05-08)"
   xmlns:inkscape="http://www.inkscape.org/namespaces/inkscape"
   xmlns:sodipodi="http://sodipodi.sourceforge.net/DTD/sodipodi-0.dtd"
   xmlns="http://www.w3.org/2000/svg"
   xmlns:svg="http://www.w3.org/2000/svg">
  <defs
     id="defs1" />
  <sodipodi:namedview
     id="namedview1"
     pagecolor="#ffffff"
     bordercolor="#000000"
     borderopacity="0.25"
     inkscape:showpageshadow="2"
     inkscape:pageopacity="0.0"
     inkscape:pagecheckerboard="0"
     inkscape:deskcolor="#d1d1d1"
     inkscape:document-units="px"
     showgrid="false"
     inkscape:zoom="42.774393"
     inkscape:cx="7.3525299"
     inkscape:cy="8.346115"
     inkscape:window-width="1600"
     inkscape:window-height="968"
     inkscape:window-x="0"
     inkscape:window-y="0"
     inkscape:window-maximized="1"
     inkscape:current-layer="svg1" />
  <path
     id="Selection"
     fill="none"
     stroke="black"
     stroke-width="1"
     d="m 7.8865245,0.76820033 c 0.193078,-0.0330415 0.3179766,0.0729553 0.4774432,0.16423983 0,0 0.8784944,0.52327814 0.8784944,0.52327814 0,0 1.4514289,0.8565326 1.4514289,0.8565326 0.124898,0.074099 0.404679,0.2072102 0.458154,0.336311 0.02233,0.053667 0.01929,0.1147777 0.01929,0.1716885 0,0 0,2.3299224 0,2.3299224 0,0.044114 -0.0042,0.1075204 0.01948,0.1455251 0.0252,0.040294 0.110194,0.084985 0.152401,0.1103854 0,0 0.305564,0.1844836 0.305564,0.1844836 0,0 1.203156,0.7243774 1.203156,0.7243774 0.0932,0.05481 0.346051,0.1841015 0.392458,0.2692772 0.0315,0.057865 0.02749,0.1256627 0.02768,0.1892588 0,0 0,1.145864 0,1.145864 0,0.046406 -0.0038,0.108283 0.01948,0.1493439 0.03075,0.053667 0.135785,0.108475 0.190594,0.1399858 0,0 0.362858,0.2186699 0.362858,0.2186699 0,0 1.470524,0.8723833 1.470524,0.8723833 0.127575,0.073144 0.41041,0.2135129 0.471525,0.3384125 0.02846,0.05844 0.02483,0.1275728 0.02502,0.1909768 0,0 0,2.9792455 0,2.9792455 -1.66e-4,0.06302 0.0035,0.132922 -0.02502,0.190978 -0.06131,0.124325 -0.397425,0.299262 -0.528818,0.378135 0,0 -1.661502,0.994228 -1.661502,0.994228 0,0 -0.381955,0.228216 -0.381955,0.228216 -0.09281,0.05711 -0.19155,0.121081 -0.305563,0.114205 -0.139986,-0.0085 -0.3831,-0.184293 -0.515639,-0.260492 0,0 -1.222255,-0.732206 -1.222255,-0.732206 0,0 -0.401052,-0.234139 -0.401052,-0.234139 -0.04774,-0.02846 -0.115732,-0.0846 -0.171879,-0.08078 -0.04354,0.0031 -0.148199,0.07028 -0.190978,0.09472 0,0 -0.4583451,0.279972 -0.4583451,0.279972 0,0 -1.3177438,0.784154 -1.3177438,0.784154 0,0 -0.401052,0.234519 -0.401052,0.234519 -0.067992,0.03858 -0.1508716,0.09224 -0.2291725,0.102173 -0.094914,0.01203 -0.1692047,-0.03934 -0.2482697,-0.0827 0,0 -0.4201507,-0.25018 -0.4201507,-0.25018 0,0 -1.4132311,-0.844119 -1.4132311,-0.844119 0,0 -0.3819557,-0.230319 -0.3819557,-0.230319 -0.044118,-0.0275 -0.1218426,-0.08765 -0.1718788,-0.09072 -0.052137,-0.0031 -0.1273825,0.04984 -0.1718797,0.07658 0,0 -0.3819535,0.228981 -0.3819535,0.228981 0,0 -1.2031575,0.715974 -1.2031575,0.715974 -0.1397957,0.08708 -0.4365753,0.291048 -0.5920305,0.291048 -0.1042736,0 -0.1802826,-0.04927 -0.2673684,-0.0993 0,0 -0.4392471,-0.268132 -0.4392471,-0.268132 0,0 -1.58511195,-0.967873 -1.58511195,-0.967873 -0.14227763,-0.09357 -0.48279006,-0.255337 -0.54944084,-0.401242 -0.0269323,-0.05882 -0.0233041,-0.10924 -0.023487,-0.171691 0,0 0,-2.9792444 0,-2.9792444 0,-0.046406 -0.002439,-0.1096201 0.0141369,-0.1527818 0.0508157,-0.1315689 0.32295562,-0.2623887 0.44422608,-0.337634 0,0 1.48962345,-0.8899544 1.48962345,-0.8899544 0,0 0.401052,-0.242731 0.401052,-0.242731 0.049656,-0.029224 0.1424678,-0.073151 0.1714957,-0.1210878 0.02368,-0.038957 0.019482,-0.1015997 0.019482,-0.1464791 0,0 0,-1.1649612 0,-1.1649612 0,-0.047744 -0.00213,-0.1073291 0.01242,-0.1527818 0.042014,-0.1321569 0.2719521,-0.2329928 0.388639,-0.3044184 0,0 0.8403003,-0.5081909 0.8403003,-0.5081909 0,0 0.3819545,-0.2251614 0.3819545,-0.2251614 0.091479,-0.059584 0.3989514,-0.2274542 0.4388662,-0.3007885 0.023304,-0.042783 0.019482,-0.1033196 0.019482,-0.1510636 0,0 0,-2.3490206 0,-2.3490206 0.00305,-0.2188596 0.1031273,-0.2364299 0.2673674,-0.3410853 0,0 0.4392482,-0.2646947 0.4392482,-0.2646947 0,0 1.5660135,-0.933497 1.5660135,-0.933497 z M 10.178252,2.8011531 c 0,0 -0.5920304,-0.354263 -0.5920304,-0.354263 0,0 -0.9548865,-0.563192 -0.9548865,-0.563192 0,0 -0.4201496,-0.2413953 -0.4201496,-0.2413953 0,0 -0.2291724,-0.1178333 -0.2291724,-0.1178333 0,0 -0.1909773,0.08976 -0.1909773,0.08976 0,0 -0.4583457,0.2690872 -0.4583457,0.2690872 0,0 -1.5278183,0.8987389 -1.5278183,0.8987389 0,0 0,0.038196 0,0.038196 0,0 1.1458648,0.6789247 1.1458648,0.6789247 0,0 0.2864649,0.1625215 0.2864649,0.1625215 0,0 0.4965407,0.2906678 0.4965407,0.2906678 0.060349,0.03476 0.1651956,0.1101932 0.2291734,0.1199331 0.068947,0.010313 0.1333016,-0.032271 0.1909773,-0.06512 0,0 0.3819536,-0.2243986 0.3819536,-0.2243986 0,0 1.1076677,-0.648941 1.1076677,-0.648941 C 9.7777721,3.0559196 10.081618,2.8997016 10.178252,2.8011577 Z M 5.4420157,3.3740843 c -0.028457,0.071806 -0.019097,0.1527819 -0.019097,0.2291732 0,0 0,0.4201501 0,0.4201501 0,0 0,1.4514268 0,1.4514268 0,0.046406 0.00244,0.1096212 -0.014136,0.152782 -0.042014,0.1086662 -0.2822635,0.2341385 -0.3869193,0.2969697 0,0 -1.2031573,0.7304881 -1.2031573,0.7304881 0,0 -0.3437587,0.2077831 -0.3437587,0.2077831 -0.032278,0.020051 -0.1143961,0.066457 -0.1338747,0.094534 -0.023873,0.034566 -0.018904,0.099691 -0.018904,0.1407508 0,0 0,0.9930814 0,0.9930814 0.1128665,0.035903 0.5370265,0.2998338 0.6684195,0.3781345 0,0 0.8975929,0.528053 0.8975929,0.528053 0,0 0.4583457,0.2721427 0.4583457,0.2721427 0.128718,0.071238 0.4667485,0.2536177 0.5330182,0.3685861 0.042594,0.073905 0.039718,0.1474343 0.039911,0.2291721 0,0 0,1.9670671 0,1.9670671 0,0 0,0.859397 0,0.859397 -1.658e-4,0.150683 -0.00681,0.128338 -0.038193,0.267368 0,0 1.5278173,0.905616 1.5278173,0.905616 0,0 0.3819546,0.224971 0.3819546,0.224971 0.05481,0.03304 0.1252808,0.08689 0.1909773,0.08517 0.079252,-0.002 0.283984,-0.141898 0.3628571,-0.18735 0,0 0.8784954,-0.523277 0.8784954,-0.523277 0,0 0.6302239,-0.375271 0.6302239,-0.375271 0.049081,-0.0294 0.2062554,-0.106184 0.2236354,-0.152973 0.01566,-0.0426 -0.01852,-0.08671 -0.03133,-0.148771 0,0 0,-0.114586 0,-0.114586 0,0 0,-2.8264653 0,-2.8264653 -0.0013,-0.056909 -0.0043,-0.1180243 0.01796,-0.1716886 0.05481,-0.1323472 0.316068,-0.251135 0.439057,-0.325998 0,0 0.706616,-0.4174766 0.706616,-0.4174766 0,0 0.802105,-0.481836 0.802105,-0.481836 0,0 0.42015,-0.2530446 0.42015,-0.2530446 0.127383,-0.075436 0.188494,-0.074674 0.190977,-0.2215331 0,0 0,-0.8784957 0,-0.8784957 0,-0.041826 0.0047,-0.1067569 -0.0189,-0.1422777 -0.02254,-0.033608 -0.0974,-0.071044 -0.133876,-0.093962 0,0 -0.286466,-0.1743623 -0.286466,-0.1743623 0,0 -0.725714,-0.4382936 -0.725714,-0.4382936 0,0 -0.477443,-0.2942953 -0.477443,-0.2942953 -0.08002,-0.046787 -0.360566,-0.2049184 -0.397807,-0.2719513 -0.02635,-0.047938 -0.02233,-0.1164961 -0.02233,-0.1699705 0,0 0,-2.1389454 0,-2.1389454 -0.153736,0.056528 -0.5610906,0.3139671 -0.7257118,0.4115563 0,0 -1.0312776,0.6015786 -1.0312776,0.6015786 0,0 -0.4965409,0.2893305 -0.4965409,0.2893305 -0.073525,0.043734 -0.2234483,0.1363609 -0.3055693,0.1441905 -0.090523,0.0086 -0.1909763,-0.058628 -0.2673674,-0.1017907 0,0 -0.4774433,-0.2792082 -0.4774433,-0.2792082 0,0 -1.1267662,-0.6647922 -1.1267662,-0.6647922 z m 3.0938308,4.2396964 c 0,0 -0.9548854,-0.3884482 -0.9548854,-0.3884482 0,0 -0.5538345,-0.2228703 -0.5538345,-0.2228703 0,0 -0.3437584,-0.1378861 -0.3437584,-0.1378861 -0.039342,-0.018145 -0.1031283,-0.03934 -0.1227991,-0.079828 -0.017765,-0.037054 -0.010885,-0.2608751 -0.010885,-0.3168312 0,-0.053286 -0.026933,-0.2142765 0.027501,-0.2352846 0.041446,-0.016039 0.1409413,0.031891 0.1825745,0.047938 0,0 0.4201496,0.1638583 0.4201496,0.1638583 0,0 0.5729319,0.2230622 0.5729319,0.2230622 0,0 0.973985,0.3915027 0.973985,0.3915027 0,0 0.4010511,0.1642407 0.4010511,0.1642407 0.1420877,0.057291 0.2448337,0.042013 0.2482709,0.2186691 0,0 0,0.2864656 0,0.2864656 0,0.043351 0.00416,0.1080934 -0.019482,0.145333 -0.027115,0.04259 -0.1065644,0.07525 -0.1524001,0.094726 0,0 -0.3437585,0.1430419 -0.3437585,0.1430419 0,0 -0.5920294,0.2580102 -0.5920294,0.2580102 0,0 -0.9930826,0.4226318 -0.9930826,0.4226318 0,0 -0.4965407,0.2114124 -0.4965407,0.2114124 -0.046405,0.021202 -0.154882,0.076968 -0.2041549,0.055005 -0.055388,-0.024442 -0.044687,-0.1336845 -0.044108,-0.1842933 0,0 0.018904,-0.2100752 0.018904,-0.2100752 -0.0065,-0.056146 -0.028457,-0.1138222 0,-0.1667236 0.036475,-0.054235 0.2201973,-0.115923 0.286657,-0.1459062 0,0 0.7639091,-0.3359293 0.7639091,-0.3359293 z M 4.98367,9.8100185 c 0,0 -0.4774432,-0.2866569 -0.4774432,-0.2866569 0,0 -0.8975929,-0.5337811 -0.8975929,-0.5337811 0,0 -0.3819556,-0.2297454 -0.3819556,-0.2297454 0,0 -0.1909773,-0.085367 -0.1909773,-0.085367 0,0 -0.1909773,0.088995 -0.1909773,0.088995 0,0 -0.3628561,0.2173334 -0.3628561,0.2173334 0,0 -0.9357889,0.5542157 -0.9357889,0.5542157 0,0 -0.4583457,0.2750067 -0.4583457,0.2750067 0.089567,0.1048467 0.330582,0.2150421 0.4583457,0.2944881 0,0 1.012179,0.610744 1.012179,0.610744 0,0 0.324662,0.191933 0.324662,0.191933 0.050795,0.03037 0.1094295,0.07925 0.1718788,0.06932 0.04297,-0.0067 0.1646233,-0.08479 0.2100758,-0.110768 0,0 0.4392482,-0.259729 0.4392482,-0.259729 0,0 1.2795475,-0.7577974 1.2795475,-0.7577974 z m 9.892623,-0.019094 c 0,0 -0.611127,-0.3498704 -0.611127,-0.3498704 0,0 -0.783008,-0.4675132 -0.783008,-0.4675132 0,0 -0.362857,-0.2165675 -0.362857,-0.2165675 0,0 -0.171879,-0.079256 -0.171879,-0.079256 0,0 -0.171879,0.063021 -0.171879,0.063021 0,0 -0.34376,0.2045366 -0.34376,0.2045366 0,0 -1.012179,0.5962314 -1.012179,0.5962314 0,0 -0.458346,0.2876116 -0.458346,0.2876116 0,0 1.43233,0.8429739 1.43233,0.8429739 0,0 0.381955,0.223824 0.381955,0.223824 0.05004,0.02789 0.112676,0.07238 0.171879,0.06703 0.06493,-0.0057 0.275008,-0.142281 0.343758,-0.181814 0,0 0.821204,-0.493483 0.821204,-0.493483 0,0 0.515638,-0.3095737 0.515638,-0.3095737 0.08689,-0.05214 0.195178,-0.09797 0.248271,-0.1871581 z M 2.71104,13.839644 c 0,0 0,-2.119849 0,-2.119849 0,0 -0.019482,-0.148771 -0.019482,-0.148771 0,0 -0.40067,-0.270426 -0.40067,-0.270426 0,0 -1.0312776,-0.631178 -1.0312776,-0.631178 0,0 -0.49654079,-0.286467 -0.49654079,-0.286467 0,0 0,2.119849 0,2.119849 0,0.04526 -0.004167,0.107138 0.0194827,0.146671 0.0408659,0.06799 0.33554679,0.229554 0.41976849,0.2815 0,0 0.9930816,0.603107 0.9930816,0.603107 z m 7.963753,-3.456691 c 0,0 -0.0191,0.248271 -0.0191,0.248271 0,0 0,0.42015 0,0.42015 0,0 0,1.470525 0,1.470525 0,0 0.0189,0.140751 0.0189,0.140751 0,0 0.114779,0.08231 0.114779,0.08231 0,0 0.305563,0.186013 0.305563,0.186013 0,0 0.954886,0.568731 0.954886,0.568731 0,0 0.572932,0.320842 0.572932,0.320842 0,0 0,-2.119848 0,-2.119848 0,0 -0.01948,-0.145334 -0.01948,-0.145334 0,0 -0.133301,-0.09682 -0.133301,-0.09682 0,0 -0.286467,-0.17207 -0.286467,-0.17207 0,0 -0.439247,-0.262784 -0.439247,-0.262784 z m 4.526162,0 c 0,0 -0.458347,0.262023 -0.458347,0.262023 0,0 -1.050375,0.6392 -1.050375,0.6392 0,0 -0.416904,0.270998 -0.416904,0.270998 0,0 -0.02233,0.164621 -0.02233,0.164621 0,0 0,1.394135 0,1.394135 0,0 0.0191,0.687518 0.0191,0.687518 0,0 1.489623,-0.875822 1.489623,-0.875822 0.07983,-0.04678 0.383099,-0.21122 0.419768,-0.274052 0.02348,-0.04011 0.01948,-0.103125 0.01948,-0.148772 z m -9.892624,0.03819 c -0.1350202,0.02749 -0.3492974,0.184868 -0.4774432,0.259348 0,0 -1.0885702,0.649324 -1.0885702,0.649324 -0.081742,0.04735 -0.3622838,0.192697 -0.400671,0.259727 -0.023304,0.04106 -0.019482,0.102939 -0.019482,0.149346 0,0 0,2.10075 0,2.10075 0.1235623,-0.04564 0.3334461,-0.186777 0.4583457,-0.259348 0,0 0.9548866,-0.564529 0.9548866,-0.564529 0,0 0.362857,-0.212748 0.362857,-0.212748 0.047747,-0.0275 0.1583191,-0.08976 0.1938402,-0.133875 0.032471,-0.06263 0.00538,-0.312629 0,-0.395514 0,0 0,-0.401053 0,-0.401053 0,0 0,-0.171879 0,-0.171879 0,0 0,-0.190978 0,-0.190978 0,0 0,-0.477443 0,-0.477443 -0.00284,-0.13884 -0.011078,-0.49463 0.01623,-0.611128 z"
     style="fill:#fafafa;fill-opacity:1;stroke:none;stroke-width:0.0191122;stroke-dasharray:none;stroke-opacity:1" />
</svg>
