<?xml version="1.0" encoding="UTF-8" standalone="no"?>
<svg
   width="16"
   height="16"
   viewBox="0 0 12.00151 12.001509"
   version="1.1"
   id="svg1"
   sodipodi:docname="eca_dark.svg"
   inkscape:version="1.4.2 (ebf0e940d0, 2025-05-08)"
   xmlns:inkscape="http://www.inkscape.org/namespaces/inkscape"
   xmlns:sodipodi="http://sodipodi.sourceforge.net/DTD/sodipodi-0.dtd"
   xmlns="http://www.w3.org/2000/svg"
   xmlns:svg="http://www.w3.org/2000/svg">
  <defs
     id="defs1" />
  <sodipodi:namedview
     id="namedview1"
     pagecolor="#ffffff"
     bordercolor="#000000"
     borderopacity="0.25"
     inkscape:showpageshadow="2"
     inkscape:pageopacity="0.0"
     inkscape:pagecheckerboard="0"
     inkscape:deskcolor="#d1d1d1"
     inkscape:document-units="mm"
     showgrid="false"
     inkscape:zoom="12.576907"
     inkscape:cx="22.461802"
     inkscape:cy="26.556609"
     inkscape:window-width="1594"
     inkscape:window-height="962"
     inkscape:window-x="0"
     inkscape:window-y="0"
     inkscape:window-maximized="1"
     inkscape:current-layer="svg1" />
  <path
     id="Selection"
     fill="none"
     stroke="black"
     stroke-width="1"
     d="m 5.9902405,0.73324549 c 0.1411693,-0.0241565 0.2324902,0.0533407 0.3490831,0.12008426 0,0 0.6423122,0.38259555 0.6423122,0.38259555 0,0 1.0612126,0.6262533 1.0612126,0.6262533 0.091318,0.054178 0.2958824,0.1515017 0.3349782,0.2458935 0.016341,0.039238 0.014097,0.083921 0.014097,0.1255306 0,0 0,1.703525 0,1.703525 0,0.032256 -0.00309,0.078613 0.014239,0.1064001 0.018432,0.029463 0.080568,0.062137 0.111427,0.080707 0,0 0.2234131,0.1348841 0.2234131,0.1348841 0,0 0.8796879,0.5296293 0.8796879,0.5296293 0.068143,0.040072 0.2530152,0.1346056 0.2869463,0.1968819 0.02304,0.042314 0.020109,0.091879 0.020252,0.1383773 0,0 0,0.8377987 0,0.8377987 0,0.033932 -0.00276,0.079173 0.014236,0.1091935 0.02248,0.039238 0.09928,0.079313 0.1393541,0.1023511 0,0 0.265305,0.1598804 0.265305,0.1598804 0,0 1.075175,0.6378442 1.075175,0.6378442 0.09327,0.053478 0.300071,0.1561089 0.344752,0.2474291 0.0208,0.042729 0.01816,0.093273 0.0183,0.1396322 0,0 0,2.178276 0,2.178276 -1.42e-4,0.04608 0.0026,0.097185 -0.0183,0.1396342 -0.04483,0.0909 -0.290575,0.2188038 -0.386643,0.2764736 0,0 -1.21481,0.7269296 -1.21481,0.7269296 0,0 -0.279265,0.166862 -0.279265,0.166862 -0.067861,0.04175 -0.1400541,0.08853 -0.2234132,0.08349 -0.1023511,-0.0063 -0.2801038,-0.134747 -0.3770101,-0.190459 0,0 -0.8936515,-0.535354 -0.8936515,-0.535354 0,0 -0.2932289,-0.17119 -0.2932289,-0.17119 -0.03491,-0.02081 -0.084619,-0.06186 -0.1256697,-0.05907 -0.031836,0.0023 -0.1083557,0.05139 -0.1396344,0.06926 0,0 -0.3351189,0.204702 -0.3351189,0.204702 0,0 -0.9634671,0.573334 -0.9634671,0.573334 0,0 -0.293231,0.17147 -0.293231,0.17147 -0.049707,0.02821 -0.1103094,0.06745 -0.1675582,0.07472 -0.069398,0.0088 -0.1237168,-0.02876 -0.1815228,-0.06045 0,0 -0.3071929,-0.182919 -0.3071929,-0.182919 0,0 -1.0332863,-0.617178 -1.0332863,-0.617178 0,0 -0.2792658,-0.168398 -0.2792658,-0.168398 -0.032255,-0.02011 -0.089085,-0.06409 -0.1256701,-0.06633 -0.038122,-0.0023 -0.093134,0.03644 -0.1256702,0.05599 0,0 -0.2792647,0.167423 -0.2792647,0.167423 0,0 -0.8796897,0.523485 -0.8796897,0.523485 -0.1022116,0.06368 -0.3192015,0.212798 -0.4328627,0.212798 -0.076238,0 -0.1318126,-0.03603 -0.1954851,-0.0726 0,0 -0.3211568,-0.196047 -0.3211568,-0.196047 0,0 -1.15895383,-0.7076596 -1.15895383,-0.7076596 C 0.64996054,9.8869018 0.40099549,9.7686302 0.35226175,9.661951 0.33257465,9.618945 0.33522435,9.582081 0.33508835,9.53642 c 0,0 0,-2.1782759 0,-2.1782759 0,-0.033932 -0.001727,-0.080148 0.0103272,-0.1117054 0.0371429,-0.096209 0.2361183,-0.1918569 0.32478687,-0.2468727 0,0 1.08913718,-0.6506885 1.08913718,-0.6506885 0,0 0.2932305,-0.1774745 0.2932305,-0.1774745 0.036303,-0.021364 0.1041652,-0.05348 0.1253895,-0.088528 0.017311,-0.028481 0.014236,-0.074286 0.014236,-0.1070991 0,0 0,-0.8517607 0,-0.8517607 0,-0.03491 -0.00154,-0.078475 0.00908,-0.1117063 0.030719,-0.096628 0.1988368,-0.1703533 0.2841518,-0.2225759 0,0 0.6143856,-0.3715633 0.6143856,-0.3715633 0,0 0.2792659,-0.1646264 0.2792659,-0.1646264 0.066882,-0.043566 0.2916921,-0.1663035 0.3208754,-0.2199231 0.017037,-0.031281 0.014238,-0.075541 0.014238,-0.1104504 0,0 0,-1.7174867 0,-1.7174867 0.00225,-0.1600194 0.075404,-0.1728658 0.1954871,-0.2493845 0,0 0.3211571,-0.1935316 0.3211571,-0.1935316 0,0 1.1449903,-0.6825259 1.1449903,-0.6825259 z M 7.6658389,2.2196405 c 0,0 -0.4328634,-0.2590202 -0.4328634,-0.2590202 0,0 -0.6981653,-0.4117772 -0.6981653,-0.4117772 0,0 -0.3071924,-0.1764962 -0.3071924,-0.1764962 0,0 -0.1675605,-0.086155 -0.1675605,-0.086155 0,0 -0.1396327,0.065627 -0.1396327,0.065627 0,0 -0.3351183,0.1967424 -0.3351183,0.1967424 0,0 -1.1170657,0.6571136 -1.1170657,0.6571136 0,0 0,0.027926 0,0.027926 0,0 0.8377986,0.496396 0.8377986,0.496396 0,0 0.2094497,0.1188271 0.2094497,0.1188271 0,0 0.3630456,0.2125225 0.3630456,0.2125225 0.044123,0.025412 0.120782,0.080568 0.1675602,0.08769 0.050408,0.00755 0.097463,-0.023598 0.1396324,-0.047615 0,0 0.279266,-0.1640696 0.279266,-0.1640696 0,0 0.8098734,-0.4744728 0.8098734,-0.4744728 0.098159,-0.05697 0.3203177,-0.17119 0.3909724,-0.2432386 z M 4.2029381,2.6385391 c -0.020805,0.052501 -0.013965,0.1117059 -0.013965,0.1675605 0,0 0,0.3071929 0,0.3071929 0,0 0,1.0612105 0,1.0612105 0,0.033932 0.00177,0.080148 -0.010324,0.1117053 -0.030717,0.079452 -0.2063781,0.1711914 -0.282897,0.2171303 0,0 -0.8796894,0.5340974 -0.8796894,0.5340974 0,0 -0.2513399,0.1519211 -0.2513399,0.1519211 -0.023599,0.014661 -0.08364,0.048594 -0.097882,0.069117 -0.017445,0.025273 -0.013828,0.072888 -0.013828,0.1029092 0,0 0,0.7260932 0,0.7260932 0.082523,0.026249 0.392649,0.2192243 0.4887157,0.276474 0,0 0.6562761,0.3860842 0.6562761,0.3860842 0,0 0.335119,0.1989785 0.335119,0.1989785 0.094114,0.052083 0.341262,0.1854316 0.3897159,0.2694908 0.03114,0.054038 0.029043,0.107797 0.029185,0.167559 0,0 0,1.4382223 0,1.4382223 0,0 0,0.6283481 0,0.6283481 -1.403e-4,0.1101699 -0.00501,0.093835 -0.027928,0.1954866 0,0 1.1170654,0.66214 1.1170654,0.66214 0,0 0.279267,0.164488 0.279267,0.164488 0.040076,0.02415 0.0916,0.06353 0.1396314,0.06227 0.057947,-0.0015 0.2076357,-0.103743 0.2653025,-0.13698 0,0 0.6423139,-0.382594 0.6423139,-0.382594 0,0 0.4607887,-0.2743785 0.4607887,-0.2743785 0.035881,-0.021508 0.1508039,-0.077637 0.1635092,-0.1118466 0.01145,-0.03114 -0.013538,-0.063394 -0.022905,-0.1087743 0,0 0,-0.083779 0,-0.083779 0,0 0,-2.0665699 0,-2.0665699 -9.789e-4,-0.041612 -0.00317,-0.086294 0.013134,-0.1255313 0.040072,-0.096764 0.2310922,-0.1836175 0.3210159,-0.2383528 0,0 0.5166421,-0.3052391 0.5166421,-0.3052391 0,0 0.5864591,-0.352294 0.5864591,-0.352294 0,0 0.3071927,-0.1850143 0.3071927,-0.1850143 0.093137,-0.055154 0.1378183,-0.054596 0.1396345,-0.1619749 0,0 0,-0.6423115 0,-0.6423115 0,-0.030579 0.00348,-0.078055 -0.01383,-0.1040256 -0.016478,-0.024576 -0.071213,-0.051944 -0.097882,-0.068698 0,0 -0.2094496,-0.1274863 -0.2094496,-0.1274863 0,0 -0.5306058,-0.3204567 -0.5306058,-0.3204567 0,0 -0.3490818,-0.2151759 -0.3490818,-0.2151759 -0.058507,-0.034214 -0.2636268,-0.149825 -0.2908551,-0.1988367 -0.019263,-0.035048 -0.016341,-0.085175 -0.016341,-0.124274 0,0 0,-1.5638902 0,-1.5638902 -0.1124044,0.041331 -0.4102421,0.2295561 -0.5306044,0.300909 0,0 -0.754018,0.4398447 -0.754018,0.4398447 0,0 -0.3630479,0.211544 -0.3630479,0.211544 -0.053758,0.031975 -0.163369,0.099699 -0.2234119,0.1054238 -0.066187,0.00628 -0.1396338,-0.042866 -0.1954867,-0.074426 0,0 -0.3490831,-0.2041419 -0.3490831,-0.2041419 0,0 -0.823835,-0.4860641 -0.823835,-0.4860641 z m 2.262055,3.0998549 c 0,0 -0.6981645,-0.2840132 -0.6981645,-0.2840132 0,0 -0.4049362,-0.1629535 -0.4049362,-0.1629535 0,0 -0.2513394,-0.1008155 -0.2513394,-0.1008155 C 5.081791,5.1773398 5.03515,5.1618498 5.020768,5.1322468 5.007795,5.1051548 5.012808,4.9415074 5.012808,4.9005932 c 0,-0.038957 -0.019689,-0.1566669 0.020105,-0.1720259 0.030301,-0.011736 0.1030509,0.023319 0.1334896,0.035048 0,0 0.3071924,0.1198044 0.3071924,0.1198044 0,0 0.4189008,0.1630933 0.4189008,0.1630933 0,0 0.712127,0.286246 0.712127,0.286246 0,0 0.2932306,0.120084 0.2932306,0.120084 0.1038871,0.041889 0.1790088,0.030717 0.1815231,0.1598802 0,0 0,0.2094495 0,0.2094495 0,0.031701 0.00309,0.079033 -0.014239,0.106261 -0.019822,0.031136 -0.077914,0.055015 -0.111427,0.069259 0,0 -0.2513406,0.1045838 -0.2513406,0.1045838 0,0 -0.4328619,0.1886439 -0.4328619,0.1886439 0,0 -0.7260921,0.3090093 -0.7260921,0.3090093 0,0 -0.3630456,0.1545726 -0.3630456,0.1545726 -0.033936,0.015487 -0.1132431,0.056274 -0.1492677,0.040214 -0.040496,-0.017872 -0.032671,-0.097745 -0.032255,-0.1347466 0,0 0.01383,-0.1535961 0.01383,-0.1535961 -0.00475,-0.041052 -0.020805,-0.08322 0,-0.1219008 0.026663,-0.039656 0.1609968,-0.084755 0.2095891,-0.1066783 0,0 0.5585326,-0.2456156 0.5585326,-0.2456156 z M 3.8678168,7.3441749 c 0,0 -0.3490813,-0.2095907 -0.3490813,-0.2095907 0,0 -0.6562763,-0.3902739 -0.6562763,-0.3902739 0,0 -0.2792661,-0.167978 -0.2792661,-0.167978 0,0 -0.1396324,-0.062416 -0.1396324,-0.062416 0,0 -0.1396342,0.06507 -0.1396342,0.06507 0,0 -0.2653022,0.1589014 -0.2653022,0.1589014 0,0 -0.6842025,0.4052151 -0.6842025,0.4052151 0,0 -0.3351195,0.2010731 -0.3351195,0.2010731 0.065487,0.076658 0.2417062,0.1572264 0.3351195,0.2153129 0,0 0.7400554,0.4465468 0.7400554,0.4465468 0,0 0.2373758,0.1403327 0.2373758,0.1403327 0.037142,0.022203 0.08001,0.057946 0.1256699,0.050689 0.031417,-0.00492 0.1203648,-0.061999 0.1535965,-0.080988 0,0 0.3211569,-0.1899016 0.3211569,-0.1899016 0,0 0.9355405,-0.5540632 0.9355405,-0.5540632 z m 7.2329962,-0.013965 c 0,0 -0.446825,-0.2558075 -0.446825,-0.2558075 0,0 -0.572499,-0.341821 -0.572499,-0.341821 0,0 -0.2653009,-0.1583443 -0.2653009,-0.1583443 0,0 -0.1256699,-0.057947 -0.1256699,-0.057947 0,0 -0.1256702,0.04608 -0.1256702,0.04608 0,0 -0.2513396,0.1495487 -0.2513396,0.1495487 0,0 -0.7400555,0.435934 -0.7400555,0.435934 0,0 -0.33512,0.210287 -0.33512,0.210287 0,0 1.0472486,0.6163401 1.0472486,0.6163401 0,0 0.2792665,0.1636499 0.2792665,0.1636499 0.036587,0.02039 0.082383,0.052921 0.1256702,0.049012 0.047474,-0.00421 0.2010711,-0.1040278 0.2513392,-0.1329314 0,0 0.6004226,-0.3608112 0.6004226,-0.3608112 0,0 0.377009,-0.226346 0.377009,-0.226346 0.06352,-0.038122 0.142706,-0.07163 0.181524,-0.136841 z M 2.2061849,10.290432 c 0,0 0,-1.5499276 0,-1.5499276 0,0 -0.014236,-0.1087742 -0.014236,-0.1087742 0,0 -0.2929501,-0.1977207 -0.2929501,-0.1977207 0,0 -0.7540201,-0.4614878 -0.7540201,-0.4614878 0,0 -0.36304571,-0.209449 -0.36304571,-0.209449 0,0 0,1.5499282 0,1.5499282 0,0.033093 -0.003084,0.078333 0.0142366,0.1072381 0.0298826,0.049708 0.24533421,0.1678398 0.30691191,0.2058193 0,0 0.7260937,0.4409607 0.7260937,0.4409607 z M 8.0288845,7.763073 c 0,0 -0.013965,0.1815227 -0.013965,0.1815227 0,0 0,0.3071935 0,0.3071935 0,0 0,1.0751747 0,1.0751747 0,0 0.013831,0.1029092 0.013831,0.1029092 0,0 0.08392,0.060183 0.08392,0.060183 0,0 0.223413,0.1360012 0.223413,0.1360012 0,0 0.6981652,0.4158267 0.6981652,0.4158267 0,0 0.4189005,0.234583 0.4189005,0.234583 0,0 0,-1.5499259 0,-1.5499259 0,0 -0.014239,-0.1062609 -0.014239,-0.1062609 0,0 -0.097465,-0.070794 -0.097465,-0.070794 0,0 -0.2094497,-0.1258097 -0.2094497,-0.1258097 0,0 -0.3211546,-0.1921351 -0.3211546,-0.1921351 z m 3.3093035,0 c 0,0 -0.33512,0.1915769 -0.33512,0.1915769 0,0 -0.767981,0.4673529 -0.767981,0.4673529 0,0 -0.3048202,0.1981389 -0.3048202,0.1981389 0,0 -0.016341,0.120363 -0.016341,0.120363 0,0 0,1.0193215 0,1.0193215 0,0 0.013961,0.5026798 0.013961,0.5026798 0,0 1.0891402,-0.6403583 1.0891402,-0.6403583 0.05837,-0.034214 0.280104,-0.1544341 0.306912,-0.2003726 0.01718,-0.029327 0.01424,-0.075403 0.01424,-0.1087739 z M 4.1051949,7.791001 c -0.098721,0.020105 -0.2553902,0.1351637 -0.3490837,0.189623 0,0 -0.7959084,0.4747513 -0.7959084,0.4747513 -0.059762,0.034629 -0.2648845,0.1408896 -0.2929501,0.1899013 -0.01704,0.030019 -0.014236,0.075261 -0.014236,0.1091938 0,0 0,1.5359636 0,1.5359636 0.090342,-0.03338 0.2437988,-0.136562 0.3351192,-0.189624 0,0 0.6981649,-0.4127525 0.6981649,-0.4127525 0,0 0.2653043,-0.1555515 0.2653043,-0.1555515 0.034907,-0.020105 0.1157559,-0.065628 0.141727,-0.097882 0.023738,-0.045798 0.00394,-0.2285793 0,-0.2891803 0,0 0,-0.2932289 0,-0.2932289 0,0 0,-0.1256699 0,-0.1256699 0,0 0,-0.1396337 0,-0.1396337 0,0 0,-0.3490821 0,-0.3490821 -0.00212,-0.101514 -0.0081,-0.3616506 0.011872,-0.4468266 z"
     style="fill:#f8f8f8;fill-opacity:1;stroke:none;stroke-width:0.0139738;stroke-dasharray:none;stroke-opacity:1" />
</svg>
